<?xml version="1.0" encoding="iso-8859-1"?>
<!-- Generator: Adobe Illustrator 16.0.0, SVG Export Plug-In . SVG Version: 6.00 Build 0)  -->
<!DOCTYPE svg PUBLIC "-//W3C//DTD SVG 1.1//EN" "http://www.w3.org/Graphics/SVG/1.1/DTD/svg11.dtd">
<svg xmlns="http://www.w3.org/2000/svg" xmlns:xlink="http://www.w3.org/1999/xlink" version="1.1" id="Capa_1" x="0px" y="0px" width="24px" height="24px" viewBox="0 0 792 792" style="enable-background:new 0 0 792 792;" xml:space="preserve">
<g>
	<path d="M498.917,204.901l-34.369-70.183L398.552,0H177.4l100.335,204.901H498.917z M528.452,185.519L616.828,0H437.59   l9.563,19.534L528.452,185.519z M566.886,379.456c-45.618-45.619-106.328-70.771-170.894-70.771   c-64.55,0-125.23,25.152-170.864,70.771c-45.634,45.665-70.786,106.375-70.786,170.879c0,64.565,25.151,125.275,70.771,170.939   C270.777,766.894,331.442,792,395.977,792c64.565,0,125.275-25.106,170.925-70.756c45.634-45.619,70.756-106.313,70.756-170.909   C637.672,485.8,612.521,425.09,566.886,379.456z M396.007,747.345c-108.618,0-196.979-88.376-196.979-196.979   c0-108.633,88.361-196.995,196.979-196.995c108.633,0,196.995,88.362,196.995,196.995   C593.002,658.969,504.64,747.345,396.007,747.345z M396.007,388.402c-89.145,0.15-161.798,72.803-161.963,161.978   c0.166,89.085,72.834,161.737,161.979,161.889c89.069-0.15,161.738-72.804,161.918-161.934   C557.775,461.205,485.152,388.552,396.007,388.402z M425.917,259.557v-19.293h-59.775v19.293H425.917z" fill="#FFFFFF"/>
</g>
<g>
</g>
<g>
</g>
<g>
</g>
<g>
</g>
<g>
</g>
<g>
</g>
<g>
</g>
<g>
</g>
<g>
</g>
<g>
</g>
<g>
</g>
<g>
</g>
<g>
</g>
<g>
</g>
<g>
</g>
</svg>
